# ProBuilder 5.2.2
# https://unity3d.com/unity/features/worldbuilding/probuilder
# 4/1/2024 8:41:20 PM

mtllib ./Note.mtl
o Note

g PolyShape
v 6.609711 -0.687 10.91228
v 6.977685 -0.6890139 11.69683
v 6.987287 -1.889004 11.7173
v 6.908618 -1.710483 11.54957
v 6.852639 -1.865257 11.43022
v 6.783206 -1.697502 11.28219
v 6.738931 -1.897728 11.18779
v 6.678143 -1.730711 11.05818
v 6.611254 -1.910952 10.91557
v 6.801313 -1.697502 11.27369
v 6.926725 -1.710483 11.54108
v 6.870747 -1.865257 11.42173
v 6.69625 -1.730711 11.04969
v 6.757038 -1.897728 11.1793
v 6.627818 -0.687 10.90379
v 6.629361 -1.910952 10.90708
v 6.995793 -0.6890139 11.68834
v 7.005394 -1.889004 11.70881

vt 1.941193E-16 9.863481E-17
vt -0.8665568 0.002013922
vt -0.8891662 1.202004
vt -0.7039063 1.023483
vt -0.572081 1.178257
vt -0.4085698 1.010502
vt -0.3043039 1.210728
vt -0.1611519 1.043711
vt -0.00363404 1.223952
vt 0.4085698 1.010502
vt 0.7039063 1.023483
vt 0.572081 1.178257
vt 0.1611519 1.043711
vt 0.3043039 1.210728
vt 0.00363404 1.223952
vt 0.8665568 0.002013922
vt 0.8891662 1.202004
vt -0.3227465 -4.768372E-07
vt -0.5260516 1.192093E-07
vt -0.3227465 0.01999952
vt -0.5260516 0.02000012
vt 1.243065 1.192093E-07
vt 1.008805 -2.384186E-07
vt 1.243065 0.02000012
vt 1.008805 0.01999976
vt -0.7075562 -2.384186E-07
vt -0.9333034 -3.576279E-07
vt -0.7075562 0.01999976
vt -0.9333034 0.01999964
vt 1.117302 -3.576279E-07
vt 0.8973314 -2.384186E-07
vt 1.117302 0.01999964
vt 0.8973314 0.01999976
vt -0.6798424 -2.384186E-07
vt -0.9192134 1.192093E-07
vt -0.6798424 0.01999976
vt -0.9192134 0.02000012
vt 1.223957 1.192093E-07
vt 1.223957 0.02000012
vt 3.223859E-09 0.02
vt -0.8665591 1.192093E-07
vt -0.8665591 0.02000012
vt -0.01833779 1.165493E-07
vt -1.218541 -1.218692E-07
vt -0.01833779 0.02000012
vt -1.218541 0.01999988
vt 1.47433 -1.192093E-07
vt 1.217054 -4.768372E-07
vt 1.47433 0.01999988
vt 1.217054 0.01999952

vn -0.9053618 -1.372821E-07 0.4246408
vn 0.905362 -2.372955E-07 -0.4246405
vn 0.3232743 -0.6484116 0.6892431
vn -0.3040877 -0.6979909 -0.6483359
vn 0.3766336 -0.4618703 0.8030086
vn -0.322416 -0.6507773 -0.6874132
vn 0.3197434 -0.6580494 0.6817149
vn -0.4246384 -0.002969091 -0.9053581
vn 0.0009867371 0.9999973 0.00210417
vn 0.4245649 0.01883803 0.9052015
vn -0.2946532 -0.7200819 -0.6282209

usemtl note
f 5/5/1 4/4/1 6/6/1
f 7/7/1 6/6/1 8/8/1
f 9/9/1 8/8/1 1/1/1
f 8/8/1 6/6/1 1/1/1
f 6/6/1 2/2/1 1/1/1
f 4/4/1 2/2/1 6/6/1
f 3/3/1 2/2/1 4/4/1
f 11/11/2 17/16/2 18/17/2
f 10/10/2 17/16/2 11/11/2
f 15/1/2 17/16/2 10/10/2
f 15/1/2 10/10/2 13/13/2
f 15/1/2 13/13/2 16/15/2
f 13/13/2 10/10/2 14/14/2
f 10/10/2 11/11/2 12/12/2
f 5/21/3 12/19/3 11/18/3
f 11/18/3 4/20/3 5/21/3
f 6/25/4 10/23/4 12/22/4
f 12/22/4 5/24/4 6/25/4
f 7/29/5 14/27/5 10/26/5
f 10/26/5 6/28/5 7/29/5
f 8/33/6 13/31/6 14/30/6
f 14/30/6 7/32/6 8/33/6
f 9/37/7 16/35/7 13/34/7
f 13/34/7 8/36/7 9/37/7
f 1/40/8 15/1/8 16/38/8
f 16/38/8 9/39/8 1/40/8
f 2/42/9 17/41/9 15/1/9
f 15/1/9 1/40/9 2/42/9
f 3/46/10 18/44/10 17/43/10
f 17/43/10 2/45/10 3/46/10
f 4/50/11 11/48/11 18/47/11
f 18/47/11 3/49/11 4/50/11

